<?xml version="1.0" encoding="UTF-8"?>
<svg xmlns="http://www.w3.org/2000/svg" xmlns:xlink="http://www.w3.org/1999/xlink" width="30pt" height="30.000001pt" viewBox="0 0 30 30.000001" version="1.2">
<defs>
<clipPath id="clip1">
  <path d="M 5.949219 6.691406 L 23.917969 6.691406 L 23.917969 22.871094 L 5.949219 22.871094 Z M 5.949219 6.691406 "/>
</clipPath>
</defs>
<g id="surface1">
<path style=" stroke:none;fill-rule:nonzero;fill:rgb(0%,29.019165%,67.83905%);fill-opacity:1;" d="M 27.910156 14.554688 C 27.910156 13.160156 28.601562 11.683594 28.175781 10.429688 C 27.738281 9.128906 26.257812 8.332031 25.441406 7.25 C 24.613281 6.15625 24.273438 4.5625 23.136719 3.765625 C 22.011719 2.984375 20.332031 3.160156 18.984375 2.730469 C 17.675781 2.328125 16.433594 1.21875 14.988281 1.21875 C 13.542969 1.21875 12.296875 2.320312 10.996094 2.730469 C 9.644531 3.152344 7.960938 2.976562 6.835938 3.765625 C 5.699219 4.5625 5.359375 6.15625 4.53125 7.25 C 3.710938 8.332031 2.234375 9.128906 1.792969 10.429688 C 1.371094 11.683594 2.058594 13.160156 2.058594 14.554688 C 2.058594 15.945312 1.367188 17.421875 1.792969 18.675781 C 2.230469 19.976562 3.710938 20.777344 4.527344 21.859375 C 5.355469 22.953125 5.695312 24.546875 6.832031 25.339844 C 7.957031 26.128906 9.636719 25.953125 10.988281 26.375 C 12.296875 26.78125 13.539062 27.890625 14.984375 27.890625 C 16.429688 27.890625 17.675781 26.785156 18.976562 26.375 C 20.328125 25.953125 22.011719 26.128906 23.136719 25.339844 C 24.273438 24.546875 24.613281 22.953125 25.441406 21.859375 C 26.261719 20.777344 27.738281 19.976562 28.175781 18.675781 C 28.601562 17.417969 27.910156 15.941406 27.910156 14.554688 Z M 27.910156 14.554688 "/>
<path style=" stroke:none;fill-rule:nonzero;fill:rgb(100%,100%,100%);fill-opacity:1;" d="M 14.996094 26.261719 C 11.855469 26.261719 8.902344 25.039062 6.683594 22.816406 C 4.460938 20.601562 3.238281 17.644531 3.238281 14.507812 C 3.238281 11.367188 4.460938 8.414062 6.683594 6.195312 C 8.902344 3.972656 11.855469 2.75 14.996094 2.75 C 18.132812 2.75 21.089844 3.972656 23.304688 6.195312 C 25.527344 8.417969 26.75 11.367188 26.75 14.507812 C 26.75 17.644531 25.527344 20.601562 23.304688 22.816406 C 21.089844 25.039062 18.132812 26.261719 14.996094 26.261719 Z M 14.996094 3.457031 C 12.042969 3.457031 9.265625 4.609375 7.179688 6.695312 C 5.09375 8.78125 3.945312 11.554688 3.945312 14.507812 C 3.945312 17.457031 5.09375 20.234375 7.179688 22.320312 C 9.265625 24.40625 12.042969 25.558594 14.996094 25.558594 C 17.945312 25.558594 20.722656 24.40625 22.808594 22.320312 C 24.894531 20.234375 26.042969 17.457031 26.042969 14.507812 C 26.042969 11.554688 24.894531 8.78125 22.808594 6.695312 C 20.722656 4.609375 17.945312 3.457031 14.996094 3.457031 Z M 14.996094 3.457031 "/>
<g clip-path="url(#clip1)" clip-rule="nonzero">
<path style=" stroke:none;fill-rule:evenodd;fill:rgb(100%,100%,100%);fill-opacity:1;" d="M 22.445312 14.164062 C 22.457031 14.335938 22.460938 14.511719 22.460938 14.6875 C 22.460938 14.773438 22.460938 14.859375 22.457031 14.941406 C 22.683594 14.59375 23.113281 14.234375 23.914062 14.03125 C 23.914062 14.03125 23.742188 15.875 22.375 15.886719 C 22.335938 16.140625 22.285156 16.394531 22.222656 16.644531 C 22.511719 16.339844 23.007812 16.0625 23.859375 16.023438 C 23.859375 16.023438 23.308594 17.8125 21.949219 17.519531 C 21.859375 17.769531 21.753906 18.011719 21.640625 18.246094 C 21.988281 18.042969 22.503906 17.917969 23.269531 18.046875 C 23.269531 18.046875 22.417969 19.585938 21.207031 19.15625 C 21.203125 19.15625 21.199219 19.152344 21.195312 19.152344 C 21.175781 19.144531 21.15625 19.136719 21.140625 19.128906 C 21.019531 19.316406 20.890625 19.492188 20.757812 19.667969 C 21.105469 19.625 21.550781 19.671875 22.097656 19.902344 C 22.097656 19.902344 20.992188 21.128906 19.941406 20.574219 C 19.804688 20.703125 19.664062 20.832031 19.519531 20.953125 C 19.851562 20.984375 20.246094 21.109375 20.703125 21.394531 C 20.703125 21.394531 19.40625 22.433594 18.453125 21.699219 C 18.289062 21.792969 18.125 21.882812 17.957031 21.96875 C 18.226562 22.074219 18.527344 22.253906 18.847656 22.546875 C 18.847656 22.546875 17.421875 23.324219 16.609375 22.480469 C 16.183594 22.597656 15.738281 22.679688 15.285156 22.722656 L 15.285156 22.714844 C 15.269531 22.71875 15.253906 22.71875 15.234375 22.722656 L 15.234375 22.308594 C 15.625 22.261719 16.007812 22.1875 16.378906 22.089844 C 16.121094 20.875 17.667969 20.175781 17.667969 20.175781 C 17.730469 20.921875 17.574219 21.421875 17.355469 21.753906 C 17.632812 21.636719 17.902344 21.503906 18.164062 21.355469 C 17.550781 20.3125 18.746094 19.148438 18.746094 19.148438 C 19.085938 19.890625 19.078125 20.445312 18.957031 20.839844 C 19.183594 20.671875 19.402344 20.492188 19.609375 20.300781 C 18.796875 19.371094 19.8125 18 19.8125 18 C 20.246094 18.652344 20.339844 19.183594 20.296875 19.585938 C 20.480469 19.367188 20.652344 19.140625 20.8125 18.902344 C 19.988281 18.144531 20.613281 16.710938 20.613281 16.710938 C 21.0625 17.140625 21.289062 17.539062 21.386719 17.886719 C 21.460938 17.726562 21.53125 17.566406 21.597656 17.402344 C 20.613281 16.910156 20.789062 15.378906 20.789062 15.378906 C 21.398438 15.679688 21.738281 16.027344 21.925781 16.359375 C 21.964844 16.191406 22 16.023438 22.027344 15.851562 C 20.921875 15.605469 20.777344 14.03125 20.777344 14.03125 C 21.476562 14.207031 21.890625 14.503906 22.132812 14.804688 C 22.136719 14.714844 22.140625 14.621094 22.140625 14.527344 C 22.140625 14.414062 22.136719 14.304688 22.132812 14.191406 C 20.765625 14.140625 20.664062 12.570312 20.664062 12.570312 C 21.378906 12.65625 21.789062 12.914062 22.027344 13.199219 C 21.988281 12.964844 21.9375 12.738281 21.878906 12.515625 C 20.535156 12.808594 19.96875 11.039062 19.96875 11.039062 C 20.789062 11.0625 21.28125 11.316406 21.578125 11.605469 C 21.476562 11.34375 21.355469 11.089844 21.226562 10.84375 C 21.226562 10.84375 21.226562 10.847656 21.222656 10.847656 C 21.222656 10.847656 21.222656 10.84375 21.21875 10.839844 C 19.925781 11.539062 18.949219 9.863281 18.949219 9.863281 C 19.921875 9.675781 20.5 9.917969 20.839844 10.203125 C 20.835938 10.195312 20.835938 10.191406 20.832031 10.183594 C 20.625 9.867188 20.390625 9.566406 20.140625 9.285156 C 20.175781 9.359375 20.191406 9.402344 20.191406 9.402344 C 18.898438 10.207031 17.847656 8.515625 17.847656 8.515625 C 18.601562 8.347656 19.125 8.449219 19.480469 8.632812 C 19.402344 8.566406 19.324219 8.496094 19.242188 8.429688 C 18.964844 8.429688 18.300781 8.332031 17.839844 7.523438 C 17.835938 7.519531 17.832031 7.519531 17.828125 7.519531 C 17.8125 7.488281 17.800781 7.460938 17.785156 7.429688 C 17.785156 7.429688 17.789062 7.433594 17.789062 7.433594 C 17.757812 7.375 17.730469 7.3125 17.703125 7.25 C 17.648438 7.117188 17.605469 6.992188 17.574219 6.898438 C 17.558594 6.839844 17.542969 6.78125 17.527344 6.722656 C 17.527344 6.722656 19.464844 6.898438 19.371094 8.382812 C 19.53125 8.507812 19.683594 8.636719 19.832031 8.769531 C 19.640625 8.367188 19.546875 7.738281 19.984375 6.832031 C 19.984375 6.832031 21.335938 8.203125 20.347656 9.277344 C 20.496094 9.4375 20.640625 9.605469 20.773438 9.777344 C 20.769531 9.394531 20.890625 8.910156 21.285156 8.332031 C 21.285156 8.332031 22.332031 9.78125 21.398438 10.699219 C 21.535156 10.9375 21.660156 11.1875 21.777344 11.441406 C 21.84375 11.054688 22.066406 10.59375 22.597656 10.097656 C 22.597656 10.097656 23.320312 11.78125 22.148438 12.457031 C 22.210938 12.675781 22.265625 12.902344 22.3125 13.128906 C 22.457031 12.753906 22.773438 12.335938 23.429688 11.957031 C 23.429688 11.957031 23.761719 13.78125 22.445312 14.164062 Z M 14.582031 22.667969 C 14.128906 22.628906 13.683594 22.546875 13.257812 22.425781 C 12.445312 23.273438 11.019531 22.496094 11.019531 22.496094 C 11.339844 22.203125 11.640625 22.023438 11.910156 21.914062 C 11.742188 21.832031 11.578125 21.742188 11.414062 21.648438 C 10.460938 22.382812 9.164062 21.339844 9.164062 21.339844 C 9.621094 21.054688 10.015625 20.929688 10.347656 20.898438 C 10.203125 20.78125 10.0625 20.652344 9.925781 20.523438 C 8.871094 21.078125 7.765625 19.851562 7.765625 19.851562 C 8.316406 19.621094 8.761719 19.574219 9.109375 19.617188 C 8.976562 19.441406 8.847656 19.261719 8.726562 19.078125 C 8.707031 19.085938 8.691406 19.09375 8.671875 19.101562 C 8.667969 19.101562 8.664062 19.105469 8.660156 19.105469 C 7.449219 19.53125 6.597656 17.992188 6.597656 17.992188 C 7.363281 17.863281 7.878906 17.992188 8.226562 18.195312 C 8.113281 17.960938 8.007812 17.71875 7.914062 17.46875 C 6.558594 17.761719 6.007812 15.972656 6.007812 15.972656 C 6.859375 16.007812 7.355469 16.289062 7.644531 16.59375 C 7.582031 16.34375 7.53125 16.089844 7.492188 15.832031 C 6.121094 15.824219 5.953125 13.976562 5.953125 13.976562 C 6.753906 14.183594 7.183594 14.542969 7.410156 14.890625 C 7.40625 14.804688 7.402344 14.71875 7.402344 14.632812 C 7.402344 14.460938 7.410156 14.285156 7.421875 14.113281 C 6.105469 13.730469 6.4375 11.90625 6.4375 11.90625 C 7.09375 12.285156 7.410156 12.703125 7.554688 13.078125 C 7.601562 12.847656 7.65625 12.625 7.71875 12.40625 C 6.546875 11.730469 7.269531 10.046875 7.269531 10.046875 C 7.800781 10.539062 8.023438 11.003906 8.089844 11.390625 C 8.203125 11.136719 8.332031 10.886719 8.46875 10.648438 C 7.535156 9.726562 8.582031 8.28125 8.582031 8.28125 C 8.976562 8.859375 9.097656 9.34375 9.09375 9.726562 C 9.226562 9.554688 9.371094 9.386719 9.519531 9.226562 C 8.53125 8.152344 9.882812 6.78125 9.882812 6.78125 C 10.320312 7.6875 10.226562 8.316406 10.035156 8.71875 C 10.183594 8.582031 10.335938 8.457031 10.492188 8.332031 C 10.402344 6.847656 12.339844 6.667969 12.339844 6.667969 C 12.324219 6.730469 12.308594 6.789062 12.292969 6.84375 C 12.261719 6.941406 12.21875 7.066406 12.164062 7.199219 C 12.136719 7.261719 12.109375 7.324219 12.078125 7.382812 C 12.078125 7.378906 12.082031 7.378906 12.082031 7.378906 C 12.066406 7.410156 12.054688 7.4375 12.039062 7.464844 C 12.035156 7.46875 12.03125 7.46875 12.027344 7.46875 C 11.566406 8.28125 10.902344 8.375 10.625 8.378906 C 10.542969 8.445312 10.464844 8.511719 10.382812 8.582031 C 10.742188 8.398438 11.265625 8.296875 12.019531 8.464844 C 12.019531 8.464844 10.96875 10.15625 9.675781 9.351562 C 9.675781 9.351562 9.691406 9.304688 9.726562 9.234375 C 9.476562 9.515625 9.242188 9.816406 9.035156 10.132812 C 9.03125 10.140625 9.03125 10.144531 9.027344 10.152344 C 9.367188 9.867188 9.945312 9.625 10.917969 9.8125 C 10.917969 9.8125 9.941406 11.484375 8.648438 10.789062 C 8.644531 10.792969 8.644531 10.796875 8.644531 10.796875 C 8.640625 10.792969 8.640625 10.792969 8.640625 10.792969 C 8.507812 11.039062 8.390625 11.292969 8.289062 11.550781 C 8.585938 11.265625 9.078125 11.011719 9.898438 10.988281 C 9.898438 10.988281 9.332031 12.753906 7.988281 12.460938 C 7.929688 12.6875 7.878906 12.914062 7.839844 13.144531 C 8.078125 12.859375 8.488281 12.605469 9.203125 12.519531 C 9.203125 12.519531 9.101562 14.089844 7.734375 14.140625 C 7.730469 14.25 7.726562 14.363281 7.726562 14.472656 C 7.726562 14.566406 7.730469 14.660156 7.734375 14.753906 C 7.976562 14.453125 8.390625 14.15625 9.089844 13.976562 C 9.089844 13.976562 8.945312 15.554688 7.839844 15.800781 C 7.867188 15.972656 7.902344 16.140625 7.941406 16.308594 C 8.128906 15.976562 8.46875 15.628906 9.078125 15.328125 C 9.078125 15.328125 9.253906 16.859375 8.269531 17.351562 C 8.332031 17.515625 8.402344 17.675781 8.480469 17.835938 C 8.578125 17.488281 8.804688 17.085938 9.253906 16.660156 C 9.253906 16.660156 9.878906 18.09375 9.054688 18.851562 C 9.214844 19.085938 9.386719 19.316406 9.570312 19.535156 C 9.527344 19.128906 9.621094 18.601562 10.054688 17.949219 C 10.054688 17.949219 11.070312 19.316406 10.257812 20.25 C 10.464844 20.441406 10.683594 20.621094 10.910156 20.789062 C 10.789062 20.394531 10.78125 19.839844 11.121094 19.097656 C 11.121094 19.097656 12.316406 20.261719 11.703125 21.304688 C 11.964844 21.453125 12.234375 21.585938 12.511719 21.703125 C 12.292969 21.371094 12.136719 20.871094 12.199219 20.125 C 12.199219 20.125 13.746094 20.824219 13.488281 22.035156 C 13.859375 22.136719 14.242188 22.210938 14.632812 22.257812 L 14.632812 22.667969 C 14.613281 22.667969 14.597656 22.664062 14.582031 22.664062 Z M 14.582031 22.667969 "/>
</g>
</g>
</svg>
